<svg height="32" viewBox="0 0 33 32" width="33" xmlns="http://www.w3.org/2000/svg">
    <g>
        <path
            d="m19.0967 16c0 1.6915-1.3711 3.0625-3.0625 3.0625s-3.0625-1.371-3.0625-3.0625c0-1.6914 1.3711-3.0625 3.0625-3.0625s3.0625 1.3711 3.0625 3.0625z" />
        <path
            d="m23.1963 10.5813c-.1472-.3989-.3821-.76002-.6873-1.0564-.2964-.30518-.6572-.54004-1.0564-.68726-.3237-.12573-.81-.27539-1.7058-.31616-.969-.04419-1.2595-.05371-3.7126-.05371-2.4534 0-2.7439.00927-3.7127.05346-.8957.04102-1.3823.19068-1.7058.31641-.3991.14722-.76023.38208-1.05638.68726-.30517.29638-.54003.6572-.68749 1.0564-.12574.3237-.27539.8103-.31617 1.706-.04419.9688-.05371 1.2593-.05371 3.7127 0 2.4531.00952 2.7436.05371 3.7126.04078.8958.19043 1.3821.31617 1.7058.14746.3992.38208.7601.68725 1.0564.29639.3052.65722.5401 1.05642.6873.3237.126.8103.2756 1.706.3164.9688.0442 1.2591.0535 3.7124.0535 2.4536 0 2.7442-.0093 3.7127-.0535.8957-.0408 1.3823-.1904 1.706-.3164.8013-.3091 1.4346-.9424 1.7437-1.7437.1257-.3237.2754-.81.3164-1.7058.0442-.969.0534-1.2595.0534-3.7126 0-2.4534-.0092-2.7439-.0534-3.7127-.0408-.8957-.1905-1.3823-.3164-1.706zm-7.1621 10.1362c-2.6057 0-4.718-2.112-4.718-4.7178 0-2.6057 2.1123-4.7177 4.718-4.7177 2.6054 0 4.7177 2.112 4.7177 4.7177 0 2.6058-2.1123 4.7178-4.7177 4.7178zm4.9043-8.5195c-.6089 0-1.1026-.4937-1.1026-1.1026 0-.6088.4937-1.10249 1.1026-1.10249.6088 0 1.1025.49369 1.1025 1.10249-.0002.6089-.4937 1.1026-1.1025 1.1026z" />
        <path
            d="m16.0342 0c-8.83523 0-16.0000203 7.16479-16.0000203 16 0 8.8352 7.1647903 16 16.0000203 16 8.8352 0 16-7.1648 16-16 0-8.83521-7.1648-16-16-16zm9.1321 19.7878c-.0445.9781-.2 1.6458-.427 2.2303-.4773 1.2341-1.4529 2.2097-2.6871 2.687-.5842.227-1.2522.3823-2.2299.427-.9798.0447-1.2928.0554-3.7879.0554-2.4953 0-2.8081-.0107-3.7881-.0554-.9777-.0447-1.6457-.2-2.2299-.427-.61332-.2307-1.1685-.5923-1.62748-1.0598-.46729-.4588-.82886-1.0142-1.05957-1.6272-.22706-.5843-.38257-1.2522-.42701-2.23-.04516-.98-.05566-1.293-.05566-3.7881s.0105-2.8081.05542-3.7878c.04443-.9781.19971-1.6458.42676-2.23027.23071-.61303.59253-1.16845 1.06006-1.62719.45874-.46753 1.01416-.82911 1.62718-1.05982.5845-.22705 1.2522-.38232 2.2302-.427.9798-.04468 1.2928-.05542 3.7879-.05542s2.8081.01074 3.7878.05566c.978.04444 1.6458.19971 2.2302.42652.6131.23071 1.1685.59253 1.6275 1.06006.4673.45898.8291 1.01416 1.0596 1.62719.2273.58447.3825 1.25217.4272 2.23027.0447.9797.0552 1.2927.0552 3.7878s-.0105 2.8081-.0554 3.7878z" />
    </g>
</svg>
